<svg xmlns="http://www.w3.org/2000/svg" version="1.1" xmlns:xlink="http://www.w3.org/1999/xlink" xmlns:svgjs="http://svgjs.dev/svgjs" width="2000" height="2250" viewBox="0 0 2000 2250"><g transform="matrix(1,0,0,1,0,0)"><svg viewBox="0 0 320 360" data-background-color="#fce44d" preserveAspectRatio="xMidYMid meet" height="2250" width="2000" xmlns="http://www.w3.org/2000/svg" xmlns:xlink="http://www.w3.org/1999/xlink"><g id="tight-bounds" transform="matrix(1,0,0,1,0,0)"><svg viewBox="0 0 320 360" height="360" width="320"><g><svg></svg></g><g><svg viewBox="0 0 320 360" height="360" width="320"><g><path xmlns="http://www.w3.org/2000/svg" d="M160 340c88.258 0 160-71.742 160-160 0-88.258-71.742-160-160-160-88.258 0-160 71.742-160 160 0 88.258 71.742 160 160 160zM165.161 329.368v-10.323c72.671-2.684 131.2-61.213 133.884-133.884h10.323c-2.684 78.452-65.755 141.523-144.207 144.207zM165.161 30.632c78.452 2.684 141.523 65.755 144.207 144.207h-10.323c-2.684-72.671-61.213-131.2-133.884-133.884zM289.032 180c0 71.123-57.91 129.032-129.032 129.032-71.123 0-129.032-57.91-129.032-129.032 0-71.123 57.91-129.032 129.032-129.032 71.123 0 129.032 57.91 129.032 129.032zM154.839 30.632v10.323c-72.671 2.684-131.2 61.213-133.884 133.884h-10.323c2.684-78.452 65.755-141.523 144.207-144.207zM20.955 185.161c2.684 72.671 61.213 131.2 133.884 133.884v10.323c-78.452-2.684-141.523-65.755-144.207-144.207z" fill="#ffffff" fill-rule="nonzero" stroke="none" stroke-width="1" stroke-linecap="butt" stroke-linejoin="miter" stroke-miterlimit="10" stroke-dasharray="" stroke-dashoffset="0" font-family="none" font-weight="none" font-size="none" text-anchor="none" style="mix-blend-mode: normal" data-fill-palette-color="tertiary"></path></g><g transform="matrix(1,0,0,1,80.84827348811707,90)"><svg viewBox="0 0 158.30345302376585 180" height="180" width="158.30345302376585"><g><svg viewBox="0 0 192.95999999999998 219.40645852359023" height="180" width="158.30345302376585"><g><rect width="192.95999999999998" height="6.869249652220859" x="0" y="118.3831007977497" fill="#ffffff" opacity="1" stroke-width="0" stroke="transparent" fill-opacity="1" class="rect-o-0" data-fill-palette-color="primary" rx="1%" id="o-0" data-palette-color="#374151"></rect></g><g transform="matrix(1,0,0,1,0.47999999999998977,143.2346793824859)"><svg viewBox="0 0 192 76.1717791411043" height="76.1717791411043" width="192"><g id="textblocktransform"><svg viewBox="0 0 192 76.1717791411043" height="76.1717791411043" width="192" id="textblock"><g><svg viewBox="0 0 192 76.1717791411043" height="76.1717791411043" width="192"><g transform="matrix(1,0,0,1,0,0)"><svg width="192" viewBox="2.25 -37.45000076293945 97.80000305175781 38.79999923706055" height="76.1717791411043" data-palette-color="#374151"><g class="wordmark-text-0" data-fill-palette-color="primary" id="text-0"><path d="M15.3 0L12.15 0 12.15-32 2.25-32 2.5-35 25.15-35 24.9-32 15.3-32 15.3 0ZM40.15-23.05L40.15-23.05Q37.35-27.25 37.35-29.98 37.35-32.7 39.3-34.8L39.3-34.8Q41.8-37.45 46.2-37.45L46.2-37.45Q49.6-37.45 52.5-35.8L52.5-35.8Q53.65-35.15 54.37-34.52 55.1-33.9 55.4-33.7L55.4-33.7 53.6-31.7Q51.6-33.45 48.7-34.35L48.7-34.35Q47.55-34.7 46.07-34.7 44.6-34.7 43.45-34.1L43.45-34.1Q40.6-32.7 40.6-29.6L40.6-29.6Q40.6-23.85 57.6-8.35L57.6-8.35Q60.35-11.8 61.7-16.75L61.7-16.75 64.55-16.1Q63.9-12.95 61.9-9.4L61.9-9.4Q61.05-7.9 59.8-6.4L59.8-6.4Q64.05-2.65 66.25-0.95L66.25-0.95 64.35 1.35Q62-0.45 57.7-4.3L57.7-4.3Q52.35 0.2 44.3 0.2L44.3 0.2Q37.95 0.2 34.45-2.63 30.95-5.45 30.95-11.45L30.95-11.45Q30.95-18.8 36.4-21.75L36.4-21.75Q38.1-22.65 40.15-23.05ZM34.2-11.55L34.2-11.55Q34.2-2.55 45.05-2.55L45.05-2.55Q51.1-2.55 55.5-6.25L55.5-6.25Q47-14 41.9-20.55L41.9-20.55Q38.25-20.15 36.22-17.88 34.2-15.6 34.2-11.55ZM81.7 0L78.3 0 78.3-35 81.7-35 81.7-18.3 93.75-35 97.65-35 85.4-18.55 100.05 0 96.15 0 81.7-18.3 81.7 0Z" fill="#ffffff" data-fill-palette-color="primary"></path></g></svg></g></svg></g></svg></g></svg></g><g transform="matrix(1,0,0,1,37.15199999999999,0)"><svg viewBox="0 0 118.656 100.40077186523438" height="100.40077186523438" width="118.656"><g><svg xmlns="http://www.w3.org/2000/svg" xmlns:xlink="http://www.w3.org/1999/xlink" version="1.1" x="0" y="0" viewBox="0 13.42199993133545 100 84.61499786376953" enable-background="new 0 0 100 100" xml:space="preserve" height="100.40077186523438" width="118.656" class="icon-icon-0" data-fill-palette-color="accent" id="icon-0"><g fill="#000000" data-fill-palette-color="accent"><path d="M0 13.422v84.615h100V13.422H0zM92.308 90.346H7.692V28.807h84.615V90.346z" fill="#ffffff" data-fill-palette-color="accent"></path><rect x="42.002" y="66.065" width="26.488" height="7.775" fill="#ffffff" data-fill-palette-color="accent"></rect><polygon points="15.521,66.064 41.988,55.549 41.988,55.527 42.002,55.533 42.002,47.181 41.988,47.187 41.988,47.165    15.521,36.65 15.515,45.014 31.487,51.357 15.515,57.701  " fill="#ffffff" data-fill-palette-color="accent"></polygon></g></svg></g></svg></g><g></g></svg></g></svg></g></svg></g><defs></defs></svg><rect width="320" height="360" fill="none" stroke="none" visibility="hidden"></rect></g></svg></g></svg>