<svg version="1.1" xmlns="http://www.w3.org/2000/svg" xmlns:xlink="http://www.w3.org/1999/xlink" width="219.98001098632812" height="46.6400032043457"><defs></defs><g transform="translate(-118.52997589111328,18.490001678466797)"><rect fill="rgb(0,0,0)" stroke="none" x="0" y="0" width="219.98001098632812" height="46.6400032043457" fill-opacity="0" transform="translate(118.52997589111328,-18.490001678466797)"></rect><g transform="translate(112.79997253417969,24.5) rotate(0,0,0) translate(-112.79997253417969,-24.5) matrix(1,0,0,1,112.79997253417969,24.5)"><path fill="rgb(252,252,252)" fill-opacity="1" d="M14.80-34.21L14.80-34.21L15.67-34.25Q15.99-34.25 15.99-34.07L15.99-34.07Q15.99-33.61 14.89-33.61L14.89-33.61Q12.08-33.61 8.91-35.45Q5.73-37.29 5.73-39.31L5.73-39.31Q5.73-41.98 8.40-41.98L8.40-41.98Q9.05-41.98 9.83-41.84L9.83-41.84Q25.42-37.84 32.09-37.84L32.09-37.84Q36.19-37.84 36.19-39.63L36.19-39.63Q36.19-40.88 33.61-41.70L33.61-41.70L31.13-42.67Q31.13-42.90 31.72-42.90L31.72-42.90Q33.52-42.90 35.54-41.31Q37.57-39.73 37.57-38.16L37.57-38.16Q37.57-36.37 34.07-36.37L34.07-36.37L33.89-36.37Q29.15-36.55 26.02-37.20L26.02-37.20Q17.19-38.99 15.99-39.24Q14.80-39.50 14.08-39.63Q13.37-39.77 12.22-39.96L12.22-39.96Q10.20-40.28 8.40-40.28Q6.61-40.28 6.61-39.31L6.61-39.31Q6.61-37.61 9.71-35.91Q12.82-34.21 14.80-34.21ZM27.95-35.95L27.95-35.95Q27.95-35.82 27.72-35.36L27.72-35.36L24.82-32.46Q16.96-23.67 16.96-16.91L16.96-16.91Q16.96-15.62 18.29-15.62L18.29-15.62Q19.21-15.62 20.50-16.27L20.50-16.27L21.65-16.91Q21.83-16.91 21.83-16.82L21.83-16.82Q21.83-16.27 20.36-15.69Q18.89-15.12 18.38-15.12L18.38-15.12Q17.14-15.12 16.45-15.97Q15.76-16.82 15.76-18.59Q15.76-20.36 17.63-24.78Q19.49-29.19 22.23-32.92Q24.96-36.64 26.89-36.64L26.89-36.64Q27.95-36.64 27.95-35.95ZM29.88-30.71L29.88-30.71L29.47-31.54Q29.47-31.68 29.82-31.68Q30.16-31.68 31.31-31.22Q32.46-30.76 32.46-30.43L32.46-30.43Q32.00-29.51 29.95-25.33Q27.91-21.14 27.91-19.69Q27.91-18.24 28.50-18.24L28.50-18.24Q29.24-18.24 30.62-19.90Q32.00-21.56 33.33-23.76L33.33-23.76L37.20-30.02Q37.84-31.12 38.67-31.12L38.67-31.12Q40.33-31.12 40.33-30.48L40.33-30.48Q40.33-30.66 40.10-30.25L40.10-30.25Q38.81-27.90 37.77-24.59Q36.74-21.28 36.74-20.27L36.74-20.27Q36.74-17.46 37.75-17.46L37.75-17.46Q38.07-17.46 39.08-18.34L39.08-18.34Q39.18-18.34 39.18-17.97L39.18-17.97Q39.18-16.77 37.82-16.77Q36.46-16.77 35.70-17.99Q34.94-19.21 34.94-21.03Q34.94-22.84 35.68-25.88L35.68-25.88Q32.09-20.04 30.87-18.52Q29.65-17.00 28.50-17.00Q27.35-17.00 26.60-17.85Q25.84-18.70 25.84-19.72L25.84-19.72Q25.84-21.65 27.86-26.09Q29.88-30.53 29.88-30.71ZM48.24-32.00Q48.56-32.00 49.53-31.03Q50.49-30.07 50.49-29.81Q50.49-29.56 50.26-29.56L50.26-29.56Q49.25-29.79 48.97-29.79L48.97-29.79Q46.90-29.79 44.72-28.27Q42.53-26.75 42.53-25.19L42.53-25.19Q42.53-24.87 44.70-22.41Q46.86-19.95 46.86-19.05Q46.86-18.15 45.57-17.23Q44.28-16.31 42.97-16.31Q41.66-16.31 40.74-16.70Q39.82-17.09 39.82-17.51L39.82-17.51Q45.11-18.61 45.11-20.18L45.11-20.18Q45.11-20.50 43.87-21.60L43.87-21.60Q41.48-23.72 41.48-26.34L41.48-26.34Q41.48-28.18 43.85-30.09Q46.21-32.00 48.24-32.00L48.24-32.00ZM56.52-40.97L56.52-40.97L54.91-40.65Q54.68-40.65 54.68-40.92L54.68-40.92Q54.68-41.61 56.45-41.61Q58.22-41.61 59.07-40.97Q59.92-40.32 59.92-39.34Q59.92-38.35 57.85-34.11L57.85-34.11L55.14-28.55L52.42-22.29Q54.31-23.95 56.17-26.18Q58.04-28.41 58.98-29.77Q59.92-31.12 60.06-31.12L60.06-31.12L60.29-31.12Q61.95-31.12 61.95-30.48L61.95-30.48Q61.95-30.66 61.72-30.25L61.72-30.25Q60.43-27.90 59.42-24.59Q58.40-21.28 58.40-20.27L58.40-20.27Q58.40-17.46 59.37-17.46L59.37-17.46Q59.69-17.46 60.70-18.34L60.70-18.34Q60.84-18.34 60.84-17.97L60.84-17.97Q60.84-16.77 59.53-16.77Q58.22-16.77 57.39-18.11Q56.56-19.44 56.56-21.23Q56.56-23.03 57.44-25.42L57.44-25.42Q54.45-22.38 51.73-20.31L51.73-20.31Q50.81-17.78 50.81-16.77L50.81-16.77L50.81-16.54Q51.23-16.27 51.23-16.08L51.23-16.08Q51.23-15.67 50.68-15.67L50.68-15.67Q50.40-15.67 50.17-15.90L50.17-15.90Q47.73-18.43 47.73-18.70Q47.73-18.98 48.01-18.98L48.01-18.98L48.10-18.98Q49.34-19.72 50.17-20.36L50.17-20.36Q51.09-23.86 52.93-28.09L52.93-28.09L55.55-34.11Q57.30-38.12 57.39-39.96L57.39-39.96Q57.39-40.97 56.52-40.97ZM49.80-17.09L49.80-17.09Q49.76-17.32 49.76-17.76Q49.76-18.20 49.89-19.03L49.89-19.03Q48.84-18.47 48.65-18.43L48.65-18.43Q49.07-17.74 49.80-17.09ZM73.58-17.42L73.58-17.42L74.04-17.51L74.14-17.46Q74.14-17.05 73.01-17.05Q71.88-17.05 71.17-18.06Q70.46-19.07 70.46-20.80Q70.46-22.52 71.10-24.73L71.10-24.73Q71.10-24.59 69.86-22.84L69.86-22.84Q66.09-17.00 63.92-17.00L63.92-17.00Q63.00-17.00 62.25-17.85Q61.49-18.70 61.49-20.06Q61.49-21.42 63.12-24.20Q64.75-26.98 67.05-29.15Q69.35-31.31 71.01-31.31L71.01-31.31L71.47-31.31Q73.17-31.31 74.37-30.64Q75.56-29.97 75.56-28.87L75.56-28.87Q75.56-28.36 75.15-28.36L75.15-28.36Q75.01-28.36 75.01-28.50L75.01-28.50Q74.23-30.20 72.76-30.20L72.76-30.20Q70.18-30.20 66.80-25.90Q63.42-21.60 63.42-19.35L63.42-19.35Q63.42-18.47 63.88-18.47L63.88-18.47Q65.95-18.47 72.57-27.81L72.57-27.81Q72.66-27.90 72.87-27.90Q73.08-27.90 73.81-27.47Q74.55-27.03 74.55-26.71L74.55-26.71Q74.55-26.71 73.91-25.51L73.91-25.51Q72.39-22.29 72.39-19.85Q72.39-17.42 73.58-17.42ZM88.21-31.26L88.21-31.26Q88.21-31.45 87.71-30.76L87.71-30.76Q85.96-28.32 85.82-27.17L85.82-27.17Q85.82-25.93 86.69-25.65L86.69-25.65Q87.02-25.56 87.02-25.51L87.02-25.51Q87.02-25.14 86.12-25.14Q85.22-25.14 84.58-25.86Q83.93-26.57 83.93-27.47Q83.93-28.36 84.16-29.01L84.16-29.01Q81.91-27.21 80.42-25.33Q78.92-23.44 78.37-22.06Q77.82-20.68 77.54-19.55Q77.26-18.43 77.08-17.85Q76.90-17.28 76.48-17.28Q76.07-17.28 75.56-17.51Q75.06-17.74 75.06-18.06L75.06-18.06Q75.06-18.84 76.57-23.60Q78.09-28.36 78.09-30.76L78.09-30.76Q78.09-31.54 77.45-31.61Q76.80-31.68 76.80-31.86L76.80-31.86Q76.80-32.27 77.49-32.27L77.49-32.27Q80.58-32.27 80.58-29.74L80.58-29.74Q80.58-29.01 79.06-24.32L79.06-24.32Q81.54-28.36 84.58-29.88L84.58-29.88Q85.31-31.54 86.76-31.54Q88.21-31.54 88.21-31.26ZM120.92-38.58Q121.93-38.25 121.93-37.93Q121.93-37.61 121.47-37.61L121.47-37.61Q120.27-37.93 119.91-37.93L119.91-37.93Q117.84-37.93 114.80-35.95Q111.76-33.98 107.19-30.46Q102.61-26.94 101.51-26.11L101.51-26.11Q104.08-20.77 107.85-17.44Q111.63-14.10 114.06-14.10L114.06-14.10Q115.31-14.10 115.31-15.25L115.31-15.25Q115.31-16.36 113.01-19.76L113.01-19.76L113.10-19.85Q113.37-19.85 114.06-19.16L114.06-19.16Q116.27-17.05 116.27-15.30L116.27-15.30Q116.27-14.24 115.33-13.55Q114.39-12.86 112.91-12.86L112.91-12.86Q110.02-12.86 107.05-15.51Q104.08-18.15 101.69-22.52L101.69-22.52Q100.03-26.02 100.03-26.13Q100.03-26.25 100.38-26.71Q100.72-27.17 100.93-27.17Q101.14-27.17 101.18-26.85L101.18-26.85Q103.53-28.41 106.66-31.31L106.66-31.31L110.75-35.03Q113.65-37.38 115.44-38.14Q117.24-38.90 118.57-38.90Q119.91-38.90 120.92-38.58ZM96.12-16.36L96.12-16.36Q96.12-15.81 96.45-14.98L96.45-14.98Q96.81-14.01 96.68-14.01L96.68-14.01Q95.99-14.01 95.48-14.82Q94.97-15.62 94.97-17.32L94.97-17.32Q94.97-22.89 101.51-34.34L101.51-34.34Q103.25-37.84 103.90-37.84L103.90-37.84Q104.40-37.84 105.05-37.54Q105.69-37.24 105.69-37.06L105.69-37.06Q105.05-36.09 104.77-35.63Q104.50-35.17 104.06-34.48Q103.62-33.79 103.16-33.01L103.16-33.01Q96.12-20.82 96.12-16.36ZM122.90-40.97L122.90-40.97L121.29-40.65Q121.06-40.65 121.06-40.92L121.06-40.92Q121.06-41.61 122.83-41.61Q124.60-41.61 125.45-40.97Q126.30-40.32 126.30-39.34Q126.30-38.35 124.23-34.11L124.23-34.11L121.52-28.55L118.80-22.29Q120.69-23.95 122.55-26.18Q124.41-28.41 125.36-29.77Q126.30-31.12 126.44-31.12L126.44-31.12L126.67-31.12Q128.32-31.12 128.32-30.48L128.32-30.48Q128.32-30.66 128.09-30.25L128.09-30.25Q126.81-27.90 125.79-24.59Q124.78-21.28 124.78-20.27L124.78-20.27Q124.78-17.46 125.75-17.46L125.75-17.46Q126.07-17.46 127.08-18.34L127.08-18.34Q127.22-18.34 127.22-17.97L127.22-17.97Q127.22-16.77 125.91-16.77Q124.60-16.77 123.77-18.11Q122.94-19.44 122.94-21.23Q122.94-23.03 123.82-25.42L123.82-25.42Q120.83-22.38 118.11-20.31L118.11-20.31Q117.19-17.78 117.19-16.77L117.19-16.77L117.19-16.54Q117.61-16.27 117.61-16.08L117.61-16.08Q117.61-15.67 117.05-15.67L117.05-15.67Q116.78-15.67 116.55-15.90L116.55-15.90Q114.11-18.43 114.11-18.70Q114.11-18.98 114.39-18.98L114.39-18.98L114.48-18.98Q115.72-19.72 116.55-20.36L116.55-20.36Q117.47-23.86 119.31-28.09L119.31-28.09L121.93-34.11Q123.68-38.12 123.77-39.96L123.77-39.96Q123.77-40.97 122.90-40.97ZM116.18-17.09L116.18-17.09Q116.13-17.32 116.13-17.76Q116.13-18.20 116.27-19.03L116.27-19.03Q115.21-18.47 115.03-18.43L115.03-18.43Q115.44-17.74 116.18-17.09ZM139.96-17.42L139.96-17.42L140.42-17.51L140.51-17.46Q140.51-17.05 139.39-17.05Q138.26-17.05 137.55-18.06Q136.83-19.07 136.83-20.80Q136.83-22.52 137.48-24.73L137.48-24.73Q137.48-24.59 136.24-22.84L136.24-22.84Q132.46-17.00 130.30-17.00L130.30-17.00Q129.38-17.00 128.62-17.85Q127.86-18.70 127.86-20.06Q127.86-21.42 129.50-24.20Q131.13-26.98 133.43-29.15Q135.73-31.31 137.39-31.31L137.39-31.31L137.85-31.31Q139.55-31.31 140.74-30.64Q141.94-29.97 141.94-28.87L141.94-28.87Q141.94-28.36 141.53-28.36L141.53-28.36Q141.39-28.36 141.39-28.50L141.39-28.50Q140.61-30.20 139.13-30.20L139.13-30.20Q136.56-30.20 133.18-25.90Q129.80-21.60 129.80-19.35L129.80-19.35Q129.80-18.47 130.26-18.47L130.26-18.47Q132.33-18.47 138.95-27.81L138.95-27.81Q139.04-27.90 139.25-27.90Q139.46-27.90 140.19-27.47Q140.93-27.03 140.93-26.71L140.93-26.71Q140.93-26.71 140.28-25.51L140.28-25.51Q138.77-22.29 138.77-19.85Q138.77-17.42 139.96-17.42ZM154.77-30.48L154.77-30.48Q154.77-30.66 154.54-30.25L154.54-30.25Q153.26-27.90 152.24-24.59Q151.23-21.28 151.23-20.27L151.23-20.27Q151.23-17.46 152.24-17.46L152.24-17.46Q152.57-17.46 153.10-17.90Q153.62-18.34 153.53-18.34L153.53-18.34Q153.67-18.34 153.67-17.97L153.67-17.97Q153.67-16.77 152.29-16.77Q150.91-16.77 150.17-17.99Q149.44-19.21 149.44-21.46Q149.44-23.72 150.63-27.42Q151.83-31.12 152.93-31.12L152.93-31.12L153.16-31.12Q154.77-31.12 154.77-30.48ZM151.19-30.02L151.19-30.02Q151.23-29.97 151.23-29.86Q151.23-29.74 150.86-29.28L150.86-29.28Q145.90-23.26 143.96-18.98L143.96-18.98L143.55-17.78Q143.27-17.28 142.86-17.28Q142.45-17.28 141.94-17.51Q141.43-17.74 141.43-18.06L141.43-18.06Q141.43-18.84 142.95-23.60Q144.47-28.36 144.47-30.76L144.47-30.76Q144.47-31.40 144.15-31.54Q143.83-31.68 143.50-31.65Q143.18-31.63 143.18-31.86L143.18-31.86Q143.18-32.27 143.87-32.27L143.87-32.27Q146.95-32.27 146.95-29.74L146.95-29.74Q146.95-28.78 144.75-22.25L144.75-22.25Q146.77-25.42 148.66-27.72Q150.54-30.02 151.19-30.02ZM166.18-17.42L166.18-17.42L166.64-17.51L166.73-17.46Q166.73-17.05 165.61-17.05Q164.48-17.05 163.77-18.06Q163.05-19.07 163.05-20.80Q163.05-22.52 163.70-24.73L163.70-24.73Q163.70-24.59 162.46-22.84L162.46-22.84Q158.68-17.00 156.52-17.00L156.52-17.00Q155.60-17.00 154.84-17.85Q154.08-18.70 154.08-20.06Q154.08-21.42 155.72-24.20Q157.35-26.98 159.65-29.15Q161.95-31.31 163.61-31.31L163.61-31.31L164.07-31.31Q165.77-31.31 166.96-30.64Q168.16-29.97 168.16-28.87L168.16-28.87Q168.16-28.36 167.75-28.36L167.75-28.36Q167.61-28.36 167.61-28.50L167.61-28.50Q166.83-30.20 165.35-30.20L165.35-30.20Q162.78-30.20 159.40-25.90Q156.02-21.60 156.02-19.35L156.02-19.35Q156.02-18.47 156.48-18.47L156.48-18.47Q158.55-18.47 165.17-27.81L165.17-27.81Q165.26-27.90 165.47-27.90Q165.68-27.90 166.41-27.47Q167.15-27.03 167.15-26.71L167.15-26.71Q167.15-26.71 166.50-25.51L166.50-25.51Q164.99-22.29 164.99-19.85Q164.99-17.42 166.18-17.42ZM174.55-19.76L174.55-19.76Q175.24-18.47 175.24-16.31L175.24-16.31Q175.24-15.85 175.20-15.44L175.20-15.44Q177.08-14.66 178.35-13.41Q179.61-12.17 179.61-11.04Q179.61-9.92 179.06-9.92L179.06-9.92Q178.92-9.92 178.83-10.19L178.83-10.19Q179.20-10.70 179.20-11.16L179.20-11.16Q179.20-12.13 177.96-13.09Q176.72-14.06 175.24-14.52L175.24-14.52Q174.69-9.78 171.73-5.57Q168.76-1.36 164.25 1.14Q159.74 3.65 155.00 3.65L155.00 3.65Q151.78 3.65 149.65 1.86Q147.51 0.06 147.51-3.09Q147.51-6.24 151.05-9.39Q154.59-12.54 159.81-14.38Q165.03-16.22 170.05-16.22L170.05-16.22Q172.39-16.22 174.05-15.81L174.05-15.81Q174.23-16.36 174.23-16.82L174.23-16.82Q174.23-18.38 173.86-19.03L173.86-19.03Q172.07-17.37 170.60-17.37Q169.13-17.37 168.02-18.80Q166.92-20.22 166.92-21.83L166.92-21.83Q166.92-25.05 170.46-28.50L170.46-28.50Q170.46-31.12 171.04-32.04Q171.61-32.96 173.20-32.96Q174.78-32.96 176.67-29.93L176.67-29.93Q179.98-29.33 179.98-27.49L179.98-27.49Q179.98-27.08 179.73-26.64Q179.48-26.20 179.20-26.20Q178.92-26.20 178.92-26.39L178.92-26.39Q179.38-26.71 179.38-27.12L179.38-27.12Q179.38-28.50 177.18-28.50L177.18-28.50Q177.22-28.13 177.22-27.54L177.22-27.54Q177.22-23.12 174.55-19.76ZM174.51-30.16Q173.86-31.68 172.58-31.68Q171.29-31.68 171.29-29.19L171.29-29.19L171.29-29.15Q172.81-30.16 174.14-30.16L174.14-30.16L174.51-30.16ZM175.70-26.16L175.70-26.16Q175.70-27.44 175.29-28.46L175.29-28.46Q174.51-28.18 173.06-27.42Q171.61-26.66 171.61-26.34L171.61-26.34Q171.61-25.97 174.05-20.87L174.05-20.87Q175.70-23.26 175.70-26.16ZM168.71-20.31L168.71-20.31Q168.71-17.92 170.55-17.92L170.55-17.92Q172.16-17.92 173.59-20.18L173.59-20.18L171.20-25.88Q170.23-24.91 169.47-23.26Q168.71-21.60 168.71-20.31ZM170.83-15.02L170.83-15.02Q166.46-15.02 162.23-13.90Q157.99-12.77 155.00-11.04Q152.01-9.32 150.17-7.25Q148.33-5.18 148.33-3.04Q148.33-0.90 149.97 0.41Q151.60 1.72 154.54 1.72L154.54 1.72Q160.89 1.72 166.57-3.32Q172.25-8.35 173.86-14.79L173.86-14.79Q172.76-15.02 170.83-15.02ZM198.43-26.62L198.43-26.62Q198.43-23.26 196.50-20.41Q194.56-17.55 191.99-17.55L191.99-17.55Q190.19-17.55 189.23-19.69Q188.26-21.83 188.26-25.33L188.26-25.33Q188.26-26.57 188.45-27.31L188.45-27.31Q184.44-20.96 182.70-19.00Q180.95-17.05 179.20-17.05L179.20-17.05Q178.42-17.05 177.94-17.69Q177.45-18.34 177.45-19.21L177.45-19.21Q177.45-22.11 183.20-29.10L183.20-29.10Q183.85-29.88 184.19-29.88Q184.54-29.88 184.54-29.61L184.54-29.61L184.44-29.47Q183.34-28.04 181.52-24.11Q179.71-20.18 179.71-19.28Q179.71-18.38 180.12-18.38L180.12-18.38Q180.81-18.38 184.15-22.61Q187.48-26.85 188.17-28.36L188.17-28.36Q188.31-28.50 189.57-28.50Q190.84-28.50 190.84-28.09L190.84-28.09L190.84-28.13Q190.70-28.13 190.70-23.99L190.70-23.99Q190.70-18.15 192.13-18.15L192.13-18.15Q193.37-18.15 194.66-21.03Q195.94-23.90 195.94-26.43L195.94-26.43Q195.94-29.70 193.97-30.34L193.97-30.34Q194.20-30.80 195.58-30.80L195.58-30.80Q198.43-30.80 198.43-26.62ZM210.71-17.42L210.71-17.42L211.17-17.51L211.26-17.46Q211.26-17.05 210.14-17.05Q209.01-17.05 208.30-18.06Q207.58-19.07 207.58-20.80Q207.58-22.52 208.23-24.73L208.23-24.73Q208.23-24.59 206.98-22.84L206.98-22.84Q203.21-17.00 201.05-17.00L201.05-17.00Q200.13-17.00 199.37-17.85Q198.61-18.70 198.61-20.06Q198.61-21.42 200.25-24.20Q201.88-26.98 204.18-29.15Q206.48-31.31 208.13-31.31L208.13-31.31L208.59-31.31Q210.30-31.31 211.49-30.64Q212.69-29.97 212.69-28.87L212.69-28.87Q212.69-28.36 212.27-28.36L212.27-28.36Q212.14-28.36 212.14-28.50L212.14-28.50Q211.35-30.20 209.88-30.20L209.88-30.20Q207.31-30.20 203.93-25.90Q200.54-21.60 200.54-19.35L200.54-19.35Q200.54-18.47 201.00-18.47L201.00-18.47Q203.07-18.47 209.70-27.81L209.70-27.81Q209.79-27.90 210.00-27.90Q210.20-27.90 210.94-27.47Q211.68-27.03 211.68-26.71L211.68-26.71Q211.68-26.71 211.03-25.51L211.03-25.51Q209.51-22.29 209.51-19.85Q209.51-17.42 210.71-17.42ZM216.28-17.69L216.28-17.69L217.01-17.92Q217.24-17.92 217.24-17.69L217.24-17.69Q217.24-16.96 215.63-16.96L215.63-16.96Q213.42-16.96 213.42-20.64L213.42-20.64Q213.42-23.07 214.90-28.39Q216.37-33.70 218.62-38.35Q220.88-42.99 222.67-42.99L222.67-42.99Q223.68-42.99 224.69-42.33Q225.71-41.66 225.71-40.88L225.71-40.88Q225.71-37.56 215.95-26.16L215.95-26.16Q215.17-22.75 215.17-20.22Q215.17-17.69 216.28-17.69ZM224.60-41.01L224.60-41.01Q224.60-41.57 224.28-41.57L224.28-41.57Q222.90-41.57 220.28-36.67Q217.66-31.77 216.28-27.35L216.28-27.35Q224.60-38.25 224.60-41.01Z"></path></g></g></svg>